<svg width="245" height="251" viewBox="0 0 245 251" fill="none" xmlns="http://www.w3.org/2000/svg">
<g clip-path="url(#clip0_3354_4734)">
<path d="M210.704 94.4856C210.214 94.1216 209.844 93.6213 209.641 93.0479C209.437 92.4744 209.41 91.8536 209.561 91.2639C209.713 90.6742 210.037 90.1422 210.493 89.735C210.949 89.3278 211.516 89.0638 212.122 88.9764C212.728 88.889 213.346 88.9821 213.898 89.2439C214.45 89.5057 214.912 89.9245 215.224 90.4473C215.536 90.9701 215.685 91.5734 215.652 92.1809C215.619 92.7885 215.405 93.373 215.038 93.8605C214.546 94.5143 213.812 94.9474 213 95.0647C212.187 95.1819 211.361 94.9736 210.704 94.4856ZM202.414 110.623C202.781 110.135 202.995 109.551 203.028 108.943C203.061 108.336 202.912 107.732 202.6 107.209C202.287 106.687 201.826 106.268 201.274 106.006C200.722 105.744 200.103 105.651 199.497 105.739C198.891 105.826 198.324 106.09 197.869 106.497C197.413 106.904 197.089 107.436 196.937 108.026C196.785 108.616 196.813 109.237 197.016 109.81C197.22 110.384 197.59 110.884 198.08 111.248C198.737 111.736 199.563 111.944 200.375 111.827C201.188 111.71 201.921 111.277 202.414 110.623ZM184.835 123.705C184.467 124.192 184.254 124.777 184.221 125.385C184.188 125.992 184.337 126.595 184.649 127.118C184.961 127.641 185.422 128.06 185.975 128.322C186.527 128.583 187.145 128.676 187.751 128.589C188.357 128.502 188.924 128.238 189.38 127.83C189.835 127.423 190.16 126.891 190.311 126.302C190.463 125.712 190.435 125.091 190.232 124.518C190.029 123.944 189.659 123.444 189.169 123.08C188.512 122.592 187.686 122.384 186.873 122.501C186.06 122.618 185.327 123.051 184.835 123.705ZM198.192 81.3485C198.559 80.861 198.773 80.2765 198.806 79.6689C198.839 79.0614 198.69 78.4581 198.378 77.9353C198.066 77.4125 197.604 76.9937 197.052 76.7319C196.5 76.4701 195.882 76.377 195.275 76.4644C194.669 76.5518 194.103 76.8158 193.647 77.223C193.191 77.6302 192.867 78.1622 192.715 78.7519C192.563 79.3416 192.591 79.9624 192.794 80.5359C192.998 81.1093 193.368 81.6096 193.858 81.9736C194.515 82.4616 195.341 82.6699 196.153 82.5526C196.966 82.4354 197.699 82.0023 198.192 81.3485ZM185.568 98.1107C185.935 97.6232 186.148 97.0387 186.181 96.4311C186.215 95.8236 186.066 95.2203 185.753 94.6975C185.441 94.1747 184.98 93.7559 184.428 93.4941C183.875 93.2323 183.257 93.1392 182.651 93.2266C182.045 93.314 181.478 93.578 181.023 93.9852C180.567 94.3924 180.243 94.9244 180.091 95.5141C179.939 96.1038 179.967 96.7246 180.17 97.2981C180.374 97.8715 180.744 98.3718 181.234 98.7358C181.891 99.2238 182.716 99.4321 183.529 99.3148C184.342 99.1976 185.075 98.7645 185.568 98.1107ZM172.943 114.873C173.31 114.385 173.524 113.801 173.557 113.193C173.59 112.586 173.441 111.982 173.129 111.46C172.817 110.937 172.356 110.518 171.803 110.256C171.251 109.994 170.633 109.901 170.027 109.989C169.421 110.076 168.854 110.34 168.398 110.747C167.943 111.155 167.618 111.687 167.467 112.276C167.315 112.866 167.342 113.487 167.546 114.06C167.749 114.634 168.119 115.134 168.609 115.498C169.266 115.986 170.092 116.194 170.905 116.077C171.718 115.96 172.451 115.527 172.943 114.873ZM181.346 68.8365C181.713 68.349 181.926 67.7645 181.96 67.1569C181.993 66.5494 181.844 65.9461 181.532 65.4233C181.219 64.9005 180.758 64.4817 180.206 64.2199C179.654 63.9581 179.035 63.865 178.429 63.9524C177.823 64.0398 177.256 64.3038 176.801 64.711C176.345 65.1182 176.021 65.6502 175.869 66.2399C175.717 66.8296 175.745 67.4504 175.948 68.0239C176.152 68.5973 176.522 69.0976 177.012 69.4616C177.669 69.9496 178.495 70.1579 179.307 70.0406C180.12 69.9234 180.853 69.4903 181.346 68.8365ZM168.721 85.5987C169.089 85.1112 169.302 84.5267 169.335 83.9191C169.368 83.3116 169.219 82.7083 168.907 82.1855C168.595 81.6627 168.134 81.2439 167.582 80.9821C167.029 80.7203 166.411 80.6272 165.805 80.7146C165.199 80.802 164.632 81.066 164.176 81.4732C163.721 81.8804 163.396 82.4124 163.245 83.0021C163.093 83.5918 163.121 84.2126 163.324 84.7861C163.527 85.3595 163.897 85.8598 164.387 86.2238C165.045 86.7118 165.87 86.9201 166.683 86.8028C167.496 86.6856 168.229 86.2525 168.721 85.5987ZM156.097 102.361C156.464 101.873 156.678 101.289 156.711 100.681C156.744 100.074 156.595 99.4705 156.283 98.9477C155.971 98.4249 155.509 98.0061 154.957 97.7443C154.405 97.4825 153.787 97.3894 153.181 97.4768C152.575 97.5642 152.008 97.8282 151.552 98.2354C151.096 98.6426 150.772 99.1746 150.62 99.7643C150.469 100.354 150.496 100.975 150.7 101.548C150.903 102.122 151.273 102.622 151.763 102.986C152.42 103.474 153.246 103.682 154.059 103.565C154.871 103.448 155.605 103.015 156.097 102.361Z" fill="#E29507" fill-opacity="0.32"/>
</g>
<g clip-path="url(#clip1_3354_4734)">
<path d="M174.608 142.413C174.118 142.049 173.748 141.549 173.545 140.976C173.342 140.402 173.314 139.781 173.466 139.192C173.617 138.602 173.942 138.07 174.397 137.663C174.853 137.256 175.42 136.992 176.026 136.904C176.632 136.817 177.25 136.91 177.802 137.172C178.355 137.433 178.816 137.852 179.128 138.375C179.44 138.898 179.589 139.501 179.556 140.109C179.523 140.716 179.309 141.301 178.942 141.788C178.45 142.442 177.717 142.875 176.904 142.992C176.091 143.11 175.265 142.901 174.608 142.413ZM166.318 158.55C166.685 158.063 166.899 157.478 166.932 156.871C166.965 156.263 166.816 155.66 166.504 155.137C166.192 154.614 165.73 154.196 165.178 153.934C164.626 153.672 164.008 153.579 163.402 153.666C162.796 153.754 162.229 154.018 161.773 154.425C161.317 154.832 160.993 155.364 160.841 155.954C160.69 156.544 160.717 157.164 160.921 157.738C161.124 158.311 161.494 158.812 161.984 159.175C162.641 159.663 163.467 159.872 164.28 159.755C165.092 159.637 165.826 159.204 166.318 158.55ZM148.739 171.633C148.372 172.12 148.158 172.705 148.125 173.312C148.092 173.92 148.241 174.523 148.553 175.046C148.865 175.569 149.327 175.987 149.879 176.249C150.431 176.511 151.049 176.604 151.655 176.517C152.261 176.429 152.828 176.165 153.284 175.758C153.74 175.351 154.064 174.819 154.216 174.229C154.367 173.64 154.34 173.019 154.136 172.445C153.933 171.872 153.563 171.372 153.073 171.008C152.416 170.52 151.59 170.311 150.777 170.429C149.965 170.546 149.231 170.979 148.739 171.633ZM162.096 129.276C162.463 128.789 162.677 128.204 162.71 127.597C162.743 126.989 162.594 126.386 162.282 125.863C161.97 125.34 161.508 124.921 160.956 124.66C160.404 124.398 159.786 124.305 159.18 124.392C158.574 124.48 158.007 124.744 157.551 125.151C157.095 125.558 156.771 126.09 156.619 126.68C156.468 127.269 156.495 127.89 156.699 128.464C156.902 129.037 157.272 129.537 157.762 129.901C158.419 130.389 159.245 130.598 160.058 130.48C160.871 130.363 161.604 129.93 162.096 129.276ZM149.472 146.038C149.839 145.551 150.053 144.966 150.086 144.359C150.119 143.751 149.97 143.148 149.658 142.625C149.346 142.102 148.884 141.684 148.332 141.422C147.78 141.16 147.162 141.067 146.555 141.154C145.949 141.242 145.383 141.506 144.927 141.913C144.471 142.32 144.147 142.852 143.995 143.442C143.843 144.032 143.871 144.652 144.074 145.226C144.278 145.799 144.648 146.3 145.138 146.663C145.795 147.151 146.621 147.36 147.433 147.243C148.246 147.125 148.979 146.692 149.472 146.038ZM136.848 162.801C137.215 162.313 137.428 161.729 137.461 161.121C137.495 160.514 137.346 159.91 137.033 159.387C136.721 158.865 136.26 158.446 135.708 158.184C135.156 157.922 134.537 157.829 133.931 157.917C133.325 158.004 132.758 158.268 132.303 158.675C131.847 159.082 131.523 159.614 131.371 160.204C131.219 160.794 131.247 161.415 131.45 161.988C131.654 162.561 132.024 163.062 132.514 163.426C133.171 163.914 133.996 164.122 134.809 164.005C135.622 163.888 136.355 163.454 136.848 162.801ZM145.25 116.764C145.617 116.277 145.831 115.692 145.864 115.085C145.897 114.477 145.748 113.874 145.436 113.351C145.124 112.828 144.662 112.409 144.11 112.148C143.558 111.886 142.94 111.793 142.334 111.88C141.727 111.968 141.161 112.232 140.705 112.639C140.249 113.046 139.925 113.578 139.773 114.168C139.622 114.757 139.649 115.378 139.853 115.952C140.056 116.525 140.426 117.025 140.916 117.389C141.573 117.877 142.399 118.086 143.212 117.968C144.024 117.851 144.758 117.418 145.25 116.764ZM132.626 133.526C132.993 133.039 133.206 132.454 133.24 131.847C133.273 131.239 133.124 130.636 132.812 130.113C132.499 129.59 132.038 129.172 131.486 128.91C130.934 128.648 130.315 128.555 129.709 128.642C129.103 128.73 128.536 128.994 128.081 129.401C127.625 129.808 127.301 130.34 127.149 130.93C126.997 131.52 127.025 132.14 127.228 132.714C127.432 133.287 127.802 133.788 128.292 134.151C128.949 134.639 129.775 134.848 130.587 134.731C131.4 134.613 132.133 134.18 132.626 133.526ZM120.001 150.289C120.369 149.801 120.582 149.217 120.615 148.609C120.648 148.002 120.499 147.398 120.187 146.875C119.875 146.353 119.414 145.934 118.862 145.672C118.309 145.41 117.691 145.317 117.085 145.405C116.479 145.492 115.912 145.756 115.456 146.163C115.001 146.57 114.676 147.102 114.525 147.692C114.373 148.282 114.401 148.903 114.604 149.476C114.807 150.049 115.178 150.55 115.667 150.914C116.325 151.402 117.15 151.61 117.963 151.493C118.776 151.376 119.509 150.942 120.001 150.289Z" fill="#E29507" fill-opacity="0.32"/>
</g>
<g clip-path="url(#clip2_3354_4734)">
<path d="M138.512 190.341C138.022 189.977 137.652 189.477 137.448 188.903C137.245 188.33 137.217 187.709 137.369 187.119C137.521 186.53 137.845 185.998 138.301 185.59C138.756 185.183 139.323 184.919 139.929 184.832C140.535 184.744 141.154 184.838 141.706 185.099C142.258 185.361 142.719 185.78 143.032 186.303C143.344 186.826 143.493 187.429 143.46 188.036C143.426 188.644 143.213 189.228 142.846 189.716C142.353 190.37 141.62 190.803 140.807 190.92C139.995 191.037 139.169 190.829 138.512 190.341ZM130.221 206.478C130.589 205.991 130.802 205.406 130.835 204.799C130.868 204.191 130.719 203.588 130.407 203.065C130.095 202.542 129.634 202.123 129.081 201.862C128.529 201.6 127.911 201.507 127.305 201.594C126.699 201.682 126.132 201.945 125.676 202.353C125.221 202.76 124.896 203.292 124.745 203.882C124.593 204.471 124.621 205.092 124.824 205.666C125.027 206.239 125.397 206.739 125.887 207.103C126.544 207.591 127.37 207.8 128.183 207.682C128.996 207.565 129.729 207.132 130.221 206.478ZM112.642 219.56C112.275 220.048 112.061 220.632 112.028 221.24C111.995 221.848 112.144 222.451 112.456 222.974C112.769 223.496 113.23 223.915 113.782 224.177C114.334 224.439 114.953 224.532 115.559 224.445C116.165 224.357 116.732 224.093 117.187 223.686C117.643 223.279 117.967 222.747 118.119 222.157C118.271 221.567 118.243 220.947 118.04 220.373C117.836 219.8 117.466 219.299 116.976 218.935C116.319 218.447 115.493 218.239 114.681 218.356C113.868 218.473 113.135 218.907 112.642 219.56ZM125.999 177.204C126.367 176.716 126.58 176.132 126.613 175.524C126.646 174.917 126.497 174.314 126.185 173.791C125.873 173.268 125.412 172.849 124.86 172.587C124.307 172.326 123.689 172.232 123.083 172.32C122.477 172.407 121.91 172.671 121.454 173.078C120.999 173.486 120.675 174.018 120.523 174.607C120.371 175.197 120.399 175.818 120.602 176.391C120.805 176.965 121.176 177.465 121.666 177.829C122.323 178.317 123.148 178.525 123.961 178.408C124.774 178.291 125.507 177.858 125.999 177.204ZM113.375 193.966C113.742 193.479 113.956 192.894 113.989 192.287C114.022 191.679 113.873 191.076 113.561 190.553C113.249 190.03 112.788 189.611 112.235 189.35C111.683 189.088 111.065 188.995 110.459 189.082C109.853 189.169 109.286 189.433 108.83 189.841C108.374 190.248 108.05 190.78 107.899 191.37C107.747 191.959 107.774 192.58 107.978 193.154C108.181 193.727 108.551 194.227 109.041 194.591C109.698 195.079 110.524 195.288 111.337 195.17C112.15 195.053 112.883 194.62 113.375 193.966ZM100.751 210.728C101.118 210.241 101.332 209.656 101.365 209.049C101.398 208.441 101.249 207.838 100.937 207.315C100.625 206.792 100.163 206.374 99.611 206.112C99.0588 205.85 98.4406 205.757 97.8345 205.844C97.2284 205.932 96.6616 206.196 96.2059 206.603C95.7502 207.01 95.426 207.542 95.2742 208.132C95.1225 208.721 95.1501 209.342 95.3535 209.916C95.5569 210.489 95.927 210.99 96.417 211.353C97.074 211.841 97.8997 212.05 98.7125 211.933C99.5253 211.815 100.258 211.382 100.751 210.728ZM109.153 164.692C109.52 164.204 109.734 163.62 109.767 163.012C109.8 162.405 109.651 161.802 109.339 161.279C109.027 160.756 108.566 160.337 108.013 160.075C107.461 159.814 106.843 159.72 106.237 159.808C105.631 159.895 105.064 160.159 104.608 160.566C104.153 160.974 103.828 161.506 103.677 162.095C103.525 162.685 103.552 163.306 103.756 163.879C103.959 164.453 104.329 164.953 104.819 165.317C105.476 165.805 106.302 166.013 107.115 165.896C107.928 165.779 108.661 165.346 109.153 164.692ZM96.529 181.454C96.8962 180.967 97.1098 180.382 97.1429 179.775C97.176 179.167 97.027 178.564 96.7148 178.041C96.4027 177.518 95.9413 177.099 95.3891 176.838C94.8369 176.576 94.2187 176.483 93.6126 176.57C93.0065 176.657 92.4397 176.921 91.984 177.329C91.5283 177.736 91.2041 178.268 91.0523 178.858C90.9006 179.447 90.9282 180.068 91.1316 180.642C91.335 181.215 91.7051 181.715 92.1951 182.079C92.8521 182.567 93.6779 182.776 94.4906 182.658C95.3034 182.541 96.0366 182.108 96.529 181.454ZM83.9047 198.216C84.2719 197.729 84.4855 197.144 84.5186 196.537C84.5517 195.929 84.4027 195.326 84.0906 194.803C83.7784 194.28 83.317 193.862 82.7648 193.6C82.2126 193.338 81.5944 193.245 80.9883 193.332C80.3822 193.42 79.8154 193.684 79.3597 194.091C78.904 194.498 78.5798 195.03 78.4281 195.62C78.2763 196.209 78.3039 196.83 78.5073 197.404C78.7107 197.977 79.0808 198.478 79.5708 198.841C80.2278 199.329 81.0536 199.538 81.8663 199.421C82.6791 199.303 83.4123 198.87 83.9047 198.216Z" fill="#E29507" fill-opacity="0.32"/>
</g>
<g clip-path="url(#clip3_3354_4734)">
<path d="M33.6943 156.383C34.1843 156.747 34.5544 157.247 34.7578 157.82C34.9612 158.394 34.9888 159.015 34.8371 159.604C34.6853 160.194 34.3611 160.726 33.9054 161.133C33.4497 161.54 32.8829 161.804 32.2768 161.892C31.6707 161.979 31.0525 161.886 30.5003 161.624C29.9481 161.362 29.4867 160.944 29.1746 160.421C28.8624 159.898 28.7134 159.295 28.7465 158.687C28.7796 158.08 28.9932 157.495 29.3604 157.008C29.8528 156.354 30.586 155.921 31.3988 155.804C32.2115 155.686 33.0373 155.895 33.6943 156.383ZM41.9847 140.245C41.6175 140.733 41.4039 141.317 41.3708 141.925C41.3377 142.533 41.4867 143.136 41.7988 143.659C42.111 144.181 42.5724 144.6 43.1246 144.862C43.6768 145.124 44.295 145.217 44.9011 145.13C45.5072 145.042 46.074 144.778 46.5297 144.371C46.9854 143.964 47.3096 143.432 47.4613 142.842C47.6131 142.252 47.5855 141.632 47.3821 141.058C47.1787 140.485 46.8086 139.984 46.3186 139.62C45.6616 139.132 44.8358 138.924 44.0231 139.041C43.2103 139.159 42.4771 139.592 41.9847 140.245ZM59.5638 127.163C59.9309 126.676 60.1446 126.091 60.1777 125.484C60.2108 124.876 60.0618 124.273 59.7496 123.75C59.4375 123.227 58.9761 122.808 58.4239 122.547C57.8717 122.285 57.2535 122.192 56.6474 122.279C56.0413 122.367 55.4745 122.631 55.0188 123.038C54.5631 123.445 54.2388 123.977 54.0871 124.567C53.9354 125.156 53.963 125.777 54.1664 126.351C54.3698 126.924 54.7399 127.424 55.2299 127.788C55.8869 128.276 56.7126 128.485 57.5254 128.367C58.3382 128.25 59.0714 127.817 59.5638 127.163ZM46.2066 169.52C45.8394 170.007 45.6258 170.592 45.5927 171.199C45.5596 171.807 45.7086 172.41 46.0207 172.933C46.3329 173.456 46.7943 173.874 47.3465 174.136C47.8987 174.398 48.5169 174.491 49.123 174.404C49.7291 174.316 50.2959 174.052 50.7516 173.645C51.2073 173.238 51.5315 172.706 51.6832 172.116C51.835 171.527 51.8074 170.906 51.604 170.332C51.4006 169.759 51.0305 169.259 50.5405 168.895C49.8835 168.407 49.0577 168.198 48.245 168.316C47.4322 168.433 46.699 168.866 46.2066 169.52ZM58.8309 152.757C58.4637 153.245 58.2501 153.829 58.217 154.437C58.1839 155.045 58.3329 155.648 58.645 156.171C58.9572 156.693 59.4185 157.112 59.9707 157.374C60.5229 157.636 61.1412 157.729 61.7473 157.642C62.3534 157.554 62.9201 157.29 63.3759 156.883C63.8316 156.476 64.1558 155.944 64.3075 155.354C64.4593 154.764 64.4317 154.144 64.2283 153.57C64.0249 152.997 63.6548 152.496 63.1648 152.132C62.5077 151.644 61.682 151.436 60.8693 151.553C60.0565 151.671 59.3233 152.104 58.8309 152.757ZM71.4552 135.995C71.088 136.483 70.8744 137.067 70.8413 137.675C70.8082 138.282 70.9571 138.886 71.2693 139.408C71.5815 139.931 72.0428 140.35 72.595 140.612C73.1472 140.874 73.7655 140.967 74.3716 140.879C74.9777 140.792 75.5444 140.528 76.0001 140.121C76.4559 139.714 76.7801 139.182 76.9318 138.592C77.0835 138.002 77.056 137.381 76.8526 136.808C76.6491 136.234 76.2791 135.734 75.7891 135.37C75.132 134.882 74.3063 134.674 73.4935 134.791C72.6808 134.908 71.9476 135.341 71.4552 135.995ZM63.0528 182.032C62.6856 182.519 62.472 183.104 62.4389 183.711C62.4058 184.319 62.5548 184.922 62.8669 185.445C63.1791 185.968 63.6404 186.386 64.1926 186.648C64.7448 186.91 65.3631 187.003 65.9692 186.916C66.5753 186.828 67.142 186.564 67.5978 186.157C68.0535 185.75 68.3777 185.218 68.5294 184.628C68.6812 184.039 68.6536 183.418 68.4502 182.844C68.2468 182.271 67.8767 181.771 67.3867 181.407C66.7296 180.919 65.9039 180.71 65.0911 180.828C64.2784 180.945 63.5452 181.378 63.0528 182.032ZM75.6771 165.269C75.3099 165.757 75.0962 166.341 75.0632 166.949C75.0301 167.557 75.179 168.16 75.4912 168.683C75.8034 169.205 76.2647 169.624 76.8169 169.886C77.3691 170.148 77.9874 170.241 78.5935 170.154C79.1996 170.066 79.7663 169.802 80.222 169.395C80.6778 168.988 81.002 168.456 81.1537 167.866C81.3054 167.276 81.2779 166.656 81.0744 166.082C80.871 165.509 80.5009 165.008 80.011 164.644C79.3539 164.156 78.5282 163.948 77.7154 164.065C76.9027 164.183 76.1695 164.616 75.6771 165.269ZM88.3014 148.507C87.9342 148.995 87.7205 149.579 87.6875 150.187C87.6544 150.794 87.8033 151.398 88.1155 151.92C88.4277 152.443 88.889 152.862 89.4412 153.124C89.9934 153.386 90.6117 153.479 91.2178 153.391C91.8239 153.304 92.3906 153.04 92.8463 152.633C93.302 152.226 93.6263 151.694 93.778 151.104C93.9297 150.514 93.9021 149.893 93.6987 149.32C93.4953 148.746 93.1252 148.246 92.6353 147.882C91.9782 147.394 91.1525 147.186 90.3397 147.303C89.527 147.42 88.7937 147.853 88.3014 148.507Z" fill="#E29507" fill-opacity="0.32"/>
</g>
<g clip-path="url(#clip4_3354_4734)">
<path d="M69.79 108.455C70.28 108.819 70.6501 109.319 70.8535 109.893C71.0569 110.466 71.0845 111.087 70.9328 111.677C70.781 112.266 70.4568 112.798 70.0011 113.205C69.5454 113.613 68.9786 113.877 68.3725 113.964C67.7664 114.051 67.1482 113.958 66.596 113.697C66.0438 113.435 65.5824 113.016 65.2703 112.493C64.9581 111.97 64.8091 111.367 64.8422 110.759C64.8753 110.152 65.0889 109.567 65.4561 109.08C65.9485 108.426 66.6817 107.993 67.4945 107.876C68.3072 107.759 69.133 107.967 69.79 108.455ZM78.0804 92.3177C77.7132 92.8052 77.4996 93.3897 77.4665 93.9973C77.4334 94.6048 77.5824 95.2082 77.8945 95.7309C78.2067 96.2537 78.6681 96.6725 79.2203 96.9343C79.7725 97.1961 80.3907 97.2892 80.9968 97.2018C81.6029 97.1144 82.1697 96.8504 82.6254 96.4432C83.0811 96.0361 83.4053 95.504 83.557 94.9143C83.7088 94.3246 83.6812 93.7038 83.4778 93.1303C83.2744 92.5569 82.9043 92.0566 82.4143 91.6927C81.7573 91.2047 80.9315 90.9964 80.1188 91.1136C79.306 91.2308 78.5728 91.6639 78.0804 92.3177ZM95.6595 79.2355C96.0266 78.748 96.2403 78.1635 96.2734 77.5559C96.3065 76.9483 96.1575 76.345 95.8453 75.8222C95.5332 75.2995 95.0718 74.8807 94.5196 74.6189C93.9674 74.3571 93.3492 74.264 92.7431 74.3514C92.137 74.4388 91.5702 74.7028 91.1145 75.1099C90.6588 75.5171 90.3346 76.0492 90.1828 76.6389C90.0311 77.2286 90.0587 77.8494 90.2621 78.4228C90.4655 78.9963 90.8356 79.4966 91.3256 79.8605C91.9826 80.3485 92.8083 80.5568 93.6211 80.4396C94.4339 80.3224 95.1671 79.8893 95.6595 79.2355ZM82.3023 121.592C81.9351 122.079 81.7215 122.664 81.6884 123.271C81.6553 123.879 81.8043 124.482 82.1164 125.005C82.4286 125.528 82.89 125.947 83.4422 126.209C83.9944 126.47 84.6126 126.563 85.2187 126.476C85.8248 126.389 86.3916 126.125 86.8473 125.717C87.303 125.31 87.6272 124.778 87.7789 124.189C87.9307 123.599 87.9031 122.978 87.6997 122.405C87.4963 121.831 87.1262 121.331 86.6362 120.967C85.9792 120.479 85.1534 120.271 84.3407 120.388C83.5279 120.505 82.7947 120.938 82.3023 121.592ZM94.9266 104.83C94.5594 105.317 94.3458 105.902 94.3127 106.509C94.2796 107.117 94.4286 107.72 94.7407 108.243C95.0529 108.766 95.5142 109.185 96.0664 109.446C96.6186 109.708 97.2369 109.801 97.843 109.714C98.4491 109.626 99.0158 109.362 99.4716 108.955C99.9273 108.548 100.252 108.016 100.403 107.426C100.555 106.837 100.527 106.216 100.324 105.642C100.121 105.069 99.7505 104.569 99.2605 104.205C98.6034 103.717 97.7777 103.508 96.965 103.626C96.1522 103.743 95.419 104.176 94.9266 104.83ZM107.551 88.0675C107.184 88.555 106.97 89.1395 106.937 89.7471C106.904 90.3546 107.053 90.958 107.365 91.4808C107.677 92.0035 108.139 92.4223 108.691 92.6841C109.243 92.9459 109.861 93.039 110.467 92.9516C111.073 92.8642 111.64 92.6002 112.096 92.193C112.552 91.7859 112.876 91.2538 113.028 90.6641C113.179 90.0744 113.152 89.4536 112.948 88.8802C112.745 88.3067 112.375 87.8064 111.885 87.4425C111.228 86.9545 110.402 86.7462 109.589 86.8634C108.776 86.9806 108.043 87.4137 107.551 88.0675ZM99.1485 134.104C98.7813 134.591 98.5677 135.176 98.5346 135.783C98.5015 136.391 98.6505 136.994 98.9626 137.517C99.2748 138.04 99.7361 138.459 100.288 138.721C100.841 138.982 101.459 139.075 102.065 138.988C102.671 138.901 103.238 138.637 103.693 138.229C104.149 137.822 104.473 137.29 104.625 136.701C104.777 136.111 104.749 135.49 104.546 134.917C104.342 134.343 103.972 133.843 103.482 133.479C102.825 132.991 102 132.783 101.187 132.9C100.374 133.017 99.6409 133.45 99.1485 134.104ZM111.773 117.342C111.406 117.829 111.192 118.414 111.159 119.021C111.126 119.629 111.275 120.232 111.587 120.755C111.899 121.278 112.36 121.697 112.913 121.958C113.465 122.22 114.083 122.313 114.689 122.226C115.295 122.138 115.862 121.874 116.318 121.467C116.773 121.06 117.098 120.528 117.249 119.938C117.401 119.349 117.374 118.728 117.17 118.154C116.967 117.581 116.597 117.081 116.107 116.717C115.45 116.229 114.624 116.02 113.811 116.138C112.998 116.255 112.265 116.688 111.773 117.342ZM124.397 100.579C124.03 101.067 123.816 101.652 123.783 102.259C123.75 102.867 123.899 103.47 124.211 103.993C124.523 104.516 124.985 104.934 125.537 105.196C126.089 105.458 126.707 105.551 127.313 105.464C127.92 105.376 128.486 105.112 128.942 104.705C129.398 104.298 129.722 103.766 129.874 103.176C130.025 102.586 129.998 101.966 129.794 101.392C129.591 100.819 129.221 100.318 128.731 99.9545C128.074 99.4665 127.248 99.2582 126.435 99.3754C125.623 99.4926 124.889 99.9257 124.397 100.579Z" fill="#E29507" fill-opacity="0.32"/>
</g>
<g clip-path="url(#clip5_3354_4734)">
<path d="M105.887 60.5271C106.377 60.891 106.747 61.3914 106.95 61.9648C107.154 62.5383 107.181 63.1591 107.029 63.7488C106.878 64.3385 106.553 64.8705 106.098 65.2777C105.642 65.6849 105.075 65.9489 104.469 66.0363C103.863 66.1237 103.245 66.0306 102.693 65.7688C102.14 65.507 101.679 65.0882 101.367 64.5654C101.055 64.0426 100.906 63.4393 100.939 62.8318C100.972 62.2242 101.186 61.6397 101.553 61.1522C102.045 60.4984 102.778 60.0653 103.591 59.948C104.404 59.8308 105.23 60.0391 105.887 60.5271ZM114.177 44.39C113.81 44.8775 113.596 45.462 113.563 46.0696C113.53 46.6771 113.679 47.2804 113.991 47.8032C114.303 48.326 114.765 48.7448 115.317 49.0066C115.869 49.2684 116.487 49.3615 117.093 49.2741C117.7 49.1867 118.266 48.9227 118.722 48.5155C119.178 48.1083 119.502 47.5763 119.654 46.9866C119.805 46.3969 119.778 45.7761 119.574 45.2026C119.371 44.6292 119.001 44.1288 118.511 43.7649C117.854 43.2769 117.028 43.0686 116.215 43.1858C115.403 43.3031 114.669 43.7362 114.177 44.39ZM131.756 31.3078C132.123 30.8202 132.337 30.2357 132.37 29.6282C132.403 29.0206 132.254 28.4173 131.942 27.8945C131.63 27.3717 131.168 26.9529 130.616 26.6911C130.064 26.4293 129.446 26.3362 128.84 26.4236C128.234 26.5111 127.667 26.775 127.211 27.1822C126.755 27.5894 126.431 28.1215 126.28 28.7111C126.128 29.3008 126.155 29.9217 126.359 30.4951C126.562 31.0686 126.932 31.5689 127.422 31.9328C128.079 32.4208 128.905 32.6291 129.718 32.5119C130.531 32.3947 131.264 31.9615 131.756 31.3078ZM118.399 73.6642C118.032 74.1517 117.818 74.7362 117.785 75.3438C117.752 75.9513 117.901 76.5546 118.213 77.0774C118.525 77.6002 118.987 78.019 119.539 78.2808C120.091 78.5426 120.709 78.6357 121.315 78.5483C121.921 78.4609 122.488 78.1969 122.944 77.7897C123.4 77.3825 123.724 76.8505 123.876 76.2608C124.027 75.6711 124 75.0503 123.796 74.4768C123.593 73.9034 123.223 73.403 122.733 73.0391C122.076 72.5511 121.25 72.3428 120.437 72.46C119.625 72.5773 118.891 73.0104 118.399 73.6642ZM131.023 56.902C130.656 57.3895 130.442 57.974 130.409 58.5816C130.376 59.1891 130.525 59.7924 130.837 60.3152C131.15 60.838 131.611 61.2568 132.163 61.5186C132.715 61.7804 133.334 61.8735 133.94 61.7861C134.546 61.6987 135.113 61.4347 135.568 61.0275C136.024 60.6203 136.348 60.0883 136.5 59.4986C136.652 58.9089 136.624 58.2881 136.421 57.7146C136.217 57.1412 135.847 56.6408 135.357 56.2769C134.7 55.7889 133.874 55.5806 133.062 55.6978C132.249 55.8151 131.516 56.2482 131.023 56.902ZM143.648 40.1398C143.28 40.6273 143.067 41.2118 143.034 41.8194C143.001 42.4269 143.15 43.0302 143.462 43.553C143.774 44.0758 144.235 44.4946 144.787 44.7564C145.34 45.0182 145.958 45.1113 146.564 45.0239C147.17 44.9365 147.737 44.6725 148.193 44.2653C148.648 43.8581 148.972 43.3261 149.124 42.7364C149.276 42.1467 149.248 41.5259 149.045 40.9524C148.842 40.379 148.471 39.8787 147.981 39.5147C147.324 39.0267 146.499 38.8184 145.686 38.9356C144.873 39.0529 144.14 39.486 143.648 40.1398ZM135.245 86.1762C134.878 86.6637 134.664 87.2482 134.631 87.8558C134.598 88.4633 134.747 89.0666 135.059 89.5894C135.371 90.1122 135.833 90.531 136.385 90.7928C136.937 91.0546 137.555 91.1477 138.162 91.0603C138.768 90.9729 139.334 90.7089 139.79 90.3017C140.246 89.8945 140.57 89.3625 140.722 88.7728C140.874 88.1831 140.846 87.5623 140.643 86.9888C140.439 86.4154 140.069 85.9151 139.579 85.5511C138.922 85.0631 138.096 84.8548 137.284 84.972C136.471 85.0893 135.738 85.5224 135.245 86.1762ZM147.869 69.414C147.502 69.9015 147.289 70.486 147.256 71.0936C147.222 71.7011 147.371 72.3044 147.684 72.8272C147.996 73.35 148.457 73.7688 149.009 74.0306C149.562 74.2924 150.18 74.3855 150.786 74.2981C151.392 74.2107 151.959 73.9467 152.414 73.5395C152.87 73.1323 153.194 72.6003 153.346 72.0106C153.498 71.4209 153.47 70.8001 153.267 70.2266C153.063 69.6532 152.693 69.1528 152.203 68.7889C151.546 68.3009 150.721 68.0926 149.908 68.2098C149.095 68.3271 148.362 68.7602 147.869 69.414ZM160.494 52.6518C160.127 53.1393 159.913 53.7238 159.88 54.3314C159.847 54.9389 159.996 55.5422 160.308 56.065C160.62 56.5878 161.081 57.0066 161.634 57.2684C162.186 57.5302 162.804 57.6233 163.41 57.5359C164.016 57.4485 164.583 57.1845 165.039 56.7773C165.494 56.3701 165.819 55.8381 165.97 55.2484C166.122 54.6587 166.095 54.0379 165.891 53.4644C165.688 52.891 165.318 52.3907 164.828 52.0267C164.171 51.5387 163.345 51.3304 162.532 51.4476C161.719 51.5649 160.986 51.998 160.494 52.6518Z" fill="#E29507" fill-opacity="0.32"/>
</g>
<defs>
<clipPath id="clip0_3354_4734">
<rect width="79" height="79" fill="white" transform="matrix(-0.601604 0.798794 -0.802796 -0.596253 238.564 88.2705)"/>
</clipPath>
<clipPath id="clip1_3354_4734">
<rect width="79" height="79" fill="white" transform="matrix(-0.601604 0.798794 -0.802796 -0.596253 202.469 136.198)"/>
</clipPath>
<clipPath id="clip2_3354_4734">
<rect width="79" height="79" fill="white" transform="matrix(-0.601604 0.798794 -0.802796 -0.596253 166.372 184.126)"/>
</clipPath>
<clipPath id="clip3_3354_4734">
<rect width="79" height="79" fill="white" transform="matrix(0.601604 -0.798794 0.802796 0.596253 5.83398 162.598)"/>
</clipPath>
<clipPath id="clip4_3354_4734">
<rect width="79" height="79" fill="white" transform="matrix(0.601604 -0.798794 0.802796 0.596253 41.9297 114.67)"/>
</clipPath>
<clipPath id="clip5_3354_4734">
<rect width="79" height="79" fill="white" transform="matrix(0.601604 -0.798794 0.802796 0.596253 78.0264 66.7422)"/>
</clipPath>
</defs>
</svg>
