<svg width="310" height="143" viewBox="0 0 310 143" fill="none" xmlns="http://www.w3.org/2000/svg">
<path d="M4.752 45C4.4 45 4.112 44.888 3.888 44.664C3.664 44.44 3.552 44.152 3.552 43.8V12.6C3.552 12.248 3.664 11.96 3.888 11.736C4.112 11.512 4.4 11.4 4.752 11.4H9.12C9.6 11.4 9.952 11.512 10.176 11.736C10.4 11.96 10.544 12.136 10.608 12.264L23.424 32.28V12.6C23.424 12.248 23.536 11.96 23.76 11.736C23.984 11.512 24.256 11.4 24.576 11.4H29.472C29.824 11.4 30.112 11.512 30.336 11.736C30.56 11.96 30.672 12.248 30.672 12.6V43.8C30.672 44.12 30.56 44.408 30.336 44.664C30.112 44.888 29.824 45 29.472 45H25.056C24.576 45 24.224 44.888 24 44.664C23.808 44.408 23.664 44.232 23.568 44.136L10.8 24.744V43.8C10.8 44.152 10.688 44.44 10.464 44.664C10.24 44.888 9.952 45 9.6 45H4.752ZM49.6268 45.48C46.9707 45.48 44.7467 45.048 42.9547 44.184C41.1627 43.288 39.7867 42.024 38.8267 40.392C37.8987 38.76 37.3867 36.856 37.2907 34.68C37.2587 34.04 37.2427 33.32 37.2427 32.52C37.2427 31.688 37.2587 30.968 37.2907 30.36C37.3867 28.152 37.9307 26.248 38.9227 24.648C39.9147 23.016 41.3067 21.768 43.0987 20.904C44.8907 20.008 47.0668 19.56 49.6268 19.56C52.1548 19.56 54.3148 20.008 56.1068 20.904C57.8987 21.768 59.2907 23.016 60.2827 24.648C61.2747 26.248 61.8188 28.152 61.9148 30.36C61.9788 30.968 62.0107 31.688 62.0107 32.52C62.0107 33.32 61.9788 34.04 61.9148 34.68C61.8188 36.856 61.2908 38.76 60.3308 40.392C59.4028 42.024 58.0428 43.288 56.2507 44.184C54.4587 45.048 52.2508 45.48 49.6268 45.48ZM49.6268 40.2C51.1948 40.2 52.3788 39.72 53.1788 38.76C53.9787 37.768 54.4107 36.328 54.4747 34.44C54.5068 33.96 54.5228 33.32 54.5228 32.52C54.5228 31.72 54.5068 31.08 54.4747 30.6C54.4107 28.744 53.9787 27.32 53.1788 26.328C52.3788 25.336 51.1948 24.84 49.6268 24.84C48.0587 24.84 46.8587 25.336 46.0267 26.328C45.2267 27.32 44.7947 28.744 44.7307 30.6C44.6987 31.08 44.6827 31.72 44.6827 32.52C44.6827 33.32 44.6987 33.96 44.7307 34.44C44.7947 36.328 45.2267 37.768 46.0267 38.76C46.8587 39.72 48.0587 40.2 49.6268 40.2ZM9.888 117C9.44 117 9.088 116.888 8.832 116.664C8.608 116.44 8.432 116.152 8.304 115.8L1.44 93.576C1.376 93.416 1.344 93.256 1.344 93.096C1.344 92.808 1.44 92.568 1.632 92.376C1.856 92.152 2.112 92.04 2.4 92.04H6.624C7.04 92.04 7.36 92.152 7.584 92.376C7.808 92.6 7.952 92.808 8.016 93L12.384 107.832L17.04 93.096C17.104 92.872 17.248 92.648 17.472 92.424C17.728 92.168 18.08 92.04 18.528 92.04H21.264C21.712 92.04 22.048 92.168 22.272 92.424C22.528 92.648 22.688 92.872 22.752 93.096L27.408 107.832L31.776 93C31.808 92.808 31.936 92.6 32.16 92.376C32.416 92.152 32.736 92.04 33.12 92.04H37.344C37.632 92.04 37.872 92.152 38.064 92.376C38.288 92.568 38.4 92.808 38.4 93.096C38.4 93.256 38.384 93.416 38.352 93.576L31.44 115.8C31.344 116.152 31.168 116.44 30.912 116.664C30.688 116.888 30.352 117 29.904 117H26.208C25.76 117 25.408 116.888 25.152 116.664C24.896 116.44 24.704 116.152 24.576 115.8L19.92 101.592L15.168 115.8C15.072 116.152 14.896 116.44 14.64 116.664C14.384 116.888 14.032 117 13.584 117H9.888ZM44.9329 117C44.6129 117 44.3409 116.888 44.1169 116.664C43.8929 116.44 43.7809 116.152 43.7809 115.8V93.24C43.7809 92.888 43.8929 92.6 44.1169 92.376C44.3409 92.152 44.6129 92.04 44.9329 92.04H49.7329C50.0849 92.04 50.3729 92.152 50.5969 92.376C50.8209 92.6 50.9329 92.888 50.9329 93.24V115.8C50.9329 116.152 50.8209 116.44 50.5969 116.664C50.3729 116.888 50.0849 117 49.7329 117H44.9329ZM44.7889 88.2C44.4689 88.2 44.1969 88.088 43.9729 87.864C43.7489 87.64 43.6369 87.352 43.6369 87V83.16C43.6369 82.808 43.7489 82.52 43.9729 82.296C44.1969 82.04 44.4689 81.912 44.7889 81.912H49.8289C50.1809 81.912 50.4689 82.04 50.6929 82.296C50.9489 82.52 51.0769 82.808 51.0769 83.16V87C51.0769 87.352 50.9489 87.64 50.6929 87.864C50.4689 88.088 50.1809 88.2 49.8289 88.2H44.7889ZM69.9127 117C67.9287 117 66.2327 116.68 64.8247 116.04C63.4167 115.368 62.3447 114.344 61.6087 112.968C60.9047 111.592 60.5527 109.864 60.5527 107.784V97.704H56.8087C56.4567 97.704 56.1687 97.592 55.9447 97.368C55.7207 97.144 55.6087 96.856 55.6087 96.504V93.24C55.6087 92.888 55.7207 92.6 55.9447 92.376C56.1687 92.152 56.4567 92.04 56.8087 92.04H60.5527V84.12C60.5527 83.768 60.6647 83.48 60.8887 83.256C61.1447 83.032 61.4327 82.92 61.7527 82.92H66.4567C66.8087 82.92 67.0967 83.032 67.3207 83.256C67.5447 83.48 67.6567 83.768 67.6567 84.12V92.04H73.6567C73.9767 92.04 74.2487 92.152 74.4727 92.376C74.6967 92.6 74.8087 92.888 74.8087 93.24V96.504C74.8087 96.856 74.6967 97.144 74.4727 97.368C74.2487 97.592 73.9767 97.704 73.6567 97.704H67.6567V107.208C67.6567 108.424 67.8647 109.384 68.2807 110.088C68.7287 110.76 69.4967 111.096 70.5847 111.096H74.0887C74.4087 111.096 74.6807 111.208 74.9047 111.432C75.1287 111.656 75.2407 111.928 75.2407 112.248V115.8C75.2407 116.152 75.1287 116.44 74.9047 116.664C74.6807 116.888 74.4087 117 74.0887 117H69.9127ZM81.5884 117C81.2364 117 80.9484 116.888 80.7244 116.664C80.5004 116.44 80.3884 116.152 80.3884 115.8V84.12C80.3884 83.768 80.5004 83.48 80.7244 83.256C80.9484 83.032 81.2364 82.92 81.5884 82.92H86.7724C87.0924 82.92 87.3644 83.032 87.5884 83.256C87.8124 83.48 87.9244 83.768 87.9244 84.12V94.92C88.7884 93.896 89.8444 93.08 91.0924 92.472C92.3404 91.864 93.8444 91.56 95.6044 91.56C97.4924 91.56 99.1564 91.992 100.596 92.856C102.068 93.688 103.22 94.92 104.052 96.552C104.884 98.152 105.3 100.104 105.3 102.408V115.8C105.3 116.152 105.188 116.44 104.964 116.664C104.74 116.888 104.452 117 104.1 117H98.8684C98.5484 117 98.2764 116.888 98.0524 116.664C97.8284 116.44 97.7164 116.152 97.7164 115.8V102.696C97.7164 101 97.3004 99.688 96.4684 98.76C95.6364 97.8 94.4524 97.32 92.9164 97.32C91.4124 97.32 90.1964 97.8 89.2684 98.76C88.3724 99.688 87.9244 101 87.9244 102.696V115.8C87.9244 116.152 87.8124 116.44 87.5884 116.664C87.3644 116.888 87.0924 117 86.7724 117H81.5884Z" fill="#191000"/>
<path d="M92.1686 45.48C89.0966 45.48 86.5206 45.032 84.4406 44.136C82.3926 43.24 80.8406 42.072 79.7846 40.632C78.7286 39.192 78.1686 37.656 78.1046 36.024C78.1046 35.768 78.2006 35.544 78.3926 35.352C78.5846 35.128 78.8246 35.016 79.1126 35.016H84.2486C84.6646 35.016 84.9846 35.112 85.2086 35.304C85.4326 35.464 85.6406 35.672 85.8326 35.928C86.0566 36.472 86.4086 37 86.8886 37.512C87.4006 38.024 88.0886 38.456 88.9526 38.808C89.8166 39.128 90.8886 39.288 92.1686 39.288C94.2486 39.288 95.8006 38.952 96.8246 38.28C97.8806 37.608 98.4086 36.696 98.4086 35.544C98.4086 34.712 98.1206 34.04 97.5446 33.528C97.0006 33.016 96.1206 32.552 94.9046 32.136C93.7206 31.72 92.1366 31.272 90.1526 30.792C87.7526 30.28 85.7046 29.624 84.0086 28.824C82.3446 27.992 81.0806 26.936 80.2166 25.656C79.3846 24.344 78.9686 22.728 78.9686 20.808C78.9686 18.888 79.4966 17.192 80.5526 15.72C81.6086 14.216 83.0966 13.048 85.0166 12.216C86.9366 11.352 89.2246 10.92 91.8806 10.92C94.0246 10.92 95.9126 11.208 97.5446 11.784C99.2086 12.36 100.585 13.112 101.673 14.04C102.793 14.968 103.641 15.96 104.217 17.016C104.793 18.072 105.097 19.096 105.129 20.088C105.129 20.344 105.033 20.584 104.841 20.808C104.649 21 104.409 21.096 104.121 21.096H98.7446C98.4246 21.096 98.1366 21.032 97.8806 20.904C97.6246 20.776 97.4166 20.552 97.2566 20.232C97.0646 19.4 96.4886 18.68 95.5286 18.072C94.6006 17.432 93.3846 17.112 91.8806 17.112C90.3126 17.112 89.0646 17.4 88.1366 17.976C87.2406 18.552 86.7926 19.432 86.7926 20.616C86.7926 21.384 87.0166 22.04 87.4646 22.584C87.9446 23.096 88.7286 23.56 89.8166 23.976C90.9366 24.36 92.4086 24.792 94.2326 25.272C97.0486 25.848 99.3366 26.536 101.097 27.336C102.857 28.136 104.153 29.176 104.985 30.456C105.817 31.704 106.233 33.288 106.233 35.208C106.233 37.352 105.625 39.192 104.409 40.728C103.225 42.264 101.577 43.448 99.4646 44.28C97.3846 45.08 94.9526 45.48 92.1686 45.48ZM123.817 45C121.833 45 120.137 44.68 118.729 44.04C117.321 43.368 116.249 42.344 115.513 40.968C114.809 39.592 114.457 37.864 114.457 35.784V25.704H110.713C110.361 25.704 110.073 25.592 109.849 25.368C109.625 25.144 109.513 24.856 109.513 24.504V21.24C109.513 20.888 109.625 20.6 109.849 20.376C110.073 20.152 110.361 20.04 110.713 20.04H114.457V12.12C114.457 11.768 114.569 11.48 114.793 11.256C115.049 11.032 115.337 10.92 115.657 10.92H120.361C120.713 10.92 121.001 11.032 121.225 11.256C121.449 11.48 121.561 11.768 121.561 12.12V20.04H127.561C127.881 20.04 128.153 20.152 128.377 20.376C128.601 20.6 128.713 20.888 128.713 21.24V24.504C128.713 24.856 128.601 25.144 128.377 25.368C128.153 25.592 127.881 25.704 127.561 25.704H121.561V35.208C121.561 36.424 121.769 37.384 122.185 38.088C122.633 38.76 123.401 39.096 124.489 39.096H127.993C128.313 39.096 128.585 39.208 128.809 39.432C129.033 39.656 129.145 39.928 129.145 40.248V43.8C129.145 44.152 129.033 44.44 128.809 44.664C128.585 44.888 128.313 45 127.993 45H123.817ZM135.445 45C135.125 45 134.853 44.888 134.629 44.664C134.405 44.44 134.293 44.152 134.293 43.8V21.24C134.293 20.92 134.405 20.648 134.629 20.424C134.853 20.168 135.125 20.04 135.445 20.04H140.149C140.469 20.04 140.741 20.168 140.965 20.424C141.221 20.648 141.349 20.92 141.349 21.24V23.16C142.149 22.168 143.125 21.4 144.277 20.856C145.461 20.312 146.821 20.04 148.357 20.04H150.421C150.741 20.04 151.013 20.152 151.237 20.376C151.461 20.6 151.573 20.888 151.573 21.24V25.368C151.573 25.72 151.461 26.008 151.237 26.232C151.013 26.456 150.741 26.568 150.421 26.568H146.197C144.789 26.568 143.685 26.968 142.885 27.768C142.085 28.536 141.685 29.64 141.685 31.08V43.8C141.685 44.152 141.573 44.44 141.349 44.664C141.125 44.888 140.837 45 140.485 45H135.445ZM165.28 45.48C163.424 45.48 161.776 45.064 160.336 44.232C158.928 43.368 157.824 42.136 157.024 40.536C156.256 38.904 155.872 36.936 155.872 34.632V21.24C155.872 20.888 155.984 20.6 156.208 20.376C156.432 20.152 156.704 20.04 157.024 20.04H162.112C162.464 20.04 162.752 20.152 162.976 20.376C163.2 20.6 163.312 20.888 163.312 21.24V34.344C163.312 37.928 164.88 39.72 168.016 39.72C169.52 39.72 170.704 39.256 171.568 38.328C172.464 37.368 172.912 36.04 172.912 34.344V21.24C172.912 20.888 173.024 20.6 173.248 20.376C173.472 20.152 173.76 20.04 174.112 20.04H179.2C179.52 20.04 179.792 20.152 180.016 20.376C180.24 20.6 180.352 20.888 180.352 21.24V43.8C180.352 44.152 180.24 44.44 180.016 44.664C179.792 44.888 179.52 45 179.2 45H174.496C174.144 45 173.856 44.888 173.632 44.664C173.408 44.44 173.296 44.152 173.296 43.8V41.928C172.464 43.08 171.392 43.96 170.08 44.568C168.768 45.176 167.168 45.48 165.28 45.48ZM199.065 55.56C196.697 55.56 194.729 55.24 193.161 54.6C191.593 53.992 190.345 53.24 189.417 52.344C188.521 51.48 187.881 50.616 187.497 49.752C187.113 48.888 186.905 48.216 186.873 47.736C186.841 47.384 186.953 47.096 187.209 46.872C187.465 46.648 187.753 46.536 188.073 46.536H193.209C193.497 46.536 193.737 46.6 193.929 46.728C194.153 46.888 194.329 47.144 194.457 47.496C194.617 47.88 194.841 48.28 195.129 48.696C195.417 49.144 195.849 49.512 196.425 49.8C197.033 50.088 197.833 50.232 198.825 50.232C199.945 50.232 200.873 50.072 201.609 49.752C202.345 49.432 202.889 48.888 203.241 48.12C203.625 47.352 203.817 46.312 203.817 45V41.784C203.049 42.616 202.073 43.304 200.889 43.848C199.737 44.392 198.313 44.664 196.617 44.664C194.953 44.664 193.481 44.408 192.201 43.896C190.953 43.352 189.913 42.6 189.081 41.64C188.249 40.648 187.609 39.464 187.161 38.088C186.713 36.712 186.457 35.16 186.393 33.432C186.361 32.568 186.361 31.72 186.393 30.888C186.457 29.224 186.713 27.704 187.161 26.328C187.609 24.952 188.249 23.768 189.081 22.776C189.913 21.752 190.953 20.968 192.201 20.424C193.481 19.848 194.953 19.56 196.617 19.56C198.377 19.56 199.881 19.896 201.129 20.568C202.377 21.24 203.401 22.072 204.201 23.064V21.24C204.201 20.92 204.313 20.648 204.537 20.424C204.761 20.168 205.033 20.04 205.353 20.04H210.057C210.377 20.04 210.649 20.168 210.873 20.424C211.129 20.648 211.257 20.92 211.257 21.24L211.305 44.328C211.305 46.728 210.841 48.76 209.913 50.424C208.985 52.088 207.609 53.352 205.785 54.216C203.993 55.112 201.753 55.56 199.065 55.56ZM198.825 39.048C199.977 39.048 200.905 38.792 201.609 38.28C202.345 37.736 202.889 37.064 203.241 36.264C203.593 35.432 203.785 34.568 203.817 33.672C203.849 33.32 203.865 32.824 203.865 32.184C203.865 31.512 203.849 31 203.817 30.648C203.785 29.752 203.593 28.904 203.241 28.104C202.889 27.272 202.345 26.6 201.609 26.088C200.905 25.576 199.977 25.32 198.825 25.32C197.609 25.32 196.649 25.592 195.945 26.136C195.241 26.648 194.729 27.336 194.409 28.2C194.089 29.064 193.897 30.008 193.833 31.032C193.801 31.8 193.801 32.552 193.833 33.288C193.897 34.344 194.089 35.304 194.409 36.168C194.729 37.032 195.241 37.736 195.945 38.28C196.649 38.792 197.609 39.048 198.825 39.048ZM230.025 55.56C227.657 55.56 225.689 55.24 224.121 54.6C222.553 53.992 221.305 53.24 220.377 52.344C219.481 51.48 218.841 50.616 218.457 49.752C218.073 48.888 217.865 48.216 217.833 47.736C217.801 47.384 217.913 47.096 218.169 46.872C218.425 46.648 218.713 46.536 219.033 46.536H224.169C224.457 46.536 224.697 46.6 224.889 46.728C225.113 46.888 225.289 47.144 225.417 47.496C225.577 47.88 225.801 48.28 226.089 48.696C226.377 49.144 226.809 49.512 227.385 49.8C227.993 50.088 228.793 50.232 229.785 50.232C230.905 50.232 231.833 50.072 232.569 49.752C233.305 49.432 233.849 48.888 234.201 48.12C234.585 47.352 234.777 46.312 234.777 45V41.784C234.009 42.616 233.033 43.304 231.849 43.848C230.697 44.392 229.273 44.664 227.577 44.664C225.913 44.664 224.441 44.408 223.161 43.896C221.913 43.352 220.873 42.6 220.041 41.64C219.209 40.648 218.569 39.464 218.121 38.088C217.673 36.712 217.417 35.16 217.353 33.432C217.321 32.568 217.321 31.72 217.353 30.888C217.417 29.224 217.673 27.704 218.121 26.328C218.569 24.952 219.209 23.768 220.041 22.776C220.873 21.752 221.913 20.968 223.161 20.424C224.441 19.848 225.913 19.56 227.577 19.56C229.337 19.56 230.841 19.896 232.089 20.568C233.337 21.24 234.361 22.072 235.161 23.064V21.24C235.161 20.92 235.273 20.648 235.497 20.424C235.721 20.168 235.993 20.04 236.313 20.04H241.017C241.337 20.04 241.609 20.168 241.833 20.424C242.089 20.648 242.217 20.92 242.217 21.24L242.265 44.328C242.265 46.728 241.801 48.76 240.873 50.424C239.945 52.088 238.569 53.352 236.745 54.216C234.953 55.112 232.713 55.56 230.025 55.56ZM229.785 39.048C230.937 39.048 231.865 38.792 232.569 38.28C233.305 37.736 233.849 37.064 234.201 36.264C234.553 35.432 234.745 34.568 234.777 33.672C234.809 33.32 234.825 32.824 234.825 32.184C234.825 31.512 234.809 31 234.777 30.648C234.745 29.752 234.553 28.904 234.201 28.104C233.849 27.272 233.305 26.6 232.569 26.088C231.865 25.576 230.937 25.32 229.785 25.32C228.569 25.32 227.609 25.592 226.905 26.136C226.201 26.648 225.689 27.336 225.369 28.2C225.049 29.064 224.857 30.008 224.793 31.032C224.761 31.8 224.761 32.552 224.793 33.288C224.857 34.344 225.049 35.304 225.369 36.168C225.689 37.032 226.201 37.736 226.905 38.28C227.609 38.792 228.569 39.048 229.785 39.048ZM250.473 45C250.121 45 249.833 44.888 249.609 44.664C249.385 44.44 249.273 44.152 249.273 43.8V12.12C249.273 11.768 249.385 11.48 249.609 11.256C249.833 11.032 250.121 10.92 250.473 10.92H255.273C255.593 10.92 255.865 11.032 256.089 11.256C256.313 11.48 256.425 11.768 256.425 12.12V43.8C256.425 44.152 256.313 44.44 256.089 44.664C255.865 44.888 255.593 45 255.273 45H250.473ZM274.588 45.48C270.908 45.48 267.98 44.456 265.804 42.408C263.66 40.36 262.524 37.384 262.396 33.48C262.396 33.224 262.396 32.888 262.396 32.472C262.396 32.024 262.396 31.672 262.396 31.416C262.524 28.952 263.084 26.84 264.076 25.08C265.068 23.288 266.46 21.928 268.252 21C270.044 20.04 272.14 19.56 274.54 19.56C277.228 19.56 279.468 20.12 281.26 21.24C283.084 22.328 284.444 23.832 285.34 25.752C286.268 27.64 286.732 29.816 286.732 32.28V33.384C286.732 33.704 286.604 33.976 286.348 34.2C286.124 34.424 285.852 34.536 285.532 34.536H269.836C269.836 34.568 269.836 34.632 269.836 34.728C269.836 34.792 269.836 34.856 269.836 34.92C269.868 35.944 270.06 36.888 270.412 37.752C270.796 38.584 271.324 39.256 271.996 39.768C272.7 40.28 273.532 40.536 274.492 40.536C275.292 40.536 275.948 40.424 276.46 40.2C276.972 39.976 277.388 39.704 277.708 39.384C278.06 39.064 278.316 38.792 278.476 38.568C278.764 38.248 278.988 38.056 279.148 37.992C279.34 37.896 279.628 37.848 280.012 37.848H285.004C285.324 37.848 285.58 37.944 285.772 38.136C285.996 38.296 286.092 38.536 286.06 38.856C286.028 39.368 285.756 40.008 285.244 40.776C284.764 41.512 284.044 42.248 283.084 42.984C282.124 43.688 280.924 44.28 279.484 44.76C278.076 45.24 276.444 45.48 274.588 45.48ZM269.836 30.168H279.244V30.072C279.244 28.92 279.052 27.928 278.668 27.096C278.316 26.232 277.788 25.56 277.084 25.08C276.38 24.6 275.532 24.36 274.54 24.36C273.548 24.36 272.7 24.6 271.996 25.08C271.292 25.56 270.748 26.232 270.364 27.096C270.012 27.928 269.836 28.92 269.836 30.072V30.168ZM147.736 117.48C144.664 117.48 142.088 117.032 140.008 116.136C137.96 115.24 136.408 114.072 135.352 112.632C134.296 111.192 133.736 109.656 133.672 108.024C133.672 107.768 133.768 107.544 133.96 107.352C134.152 107.128 134.392 107.016 134.68 107.016H139.816C140.232 107.016 140.552 107.112 140.776 107.304C141 107.464 141.208 107.672 141.4 107.928C141.624 108.472 141.976 109 142.456 109.512C142.968 110.024 143.656 110.456 144.52 110.808C145.384 111.128 146.456 111.288 147.736 111.288C149.816 111.288 151.368 110.952 152.392 110.28C153.448 109.608 153.976 108.696 153.976 107.544C153.976 106.712 153.688 106.04 153.112 105.528C152.568 105.016 151.688 104.552 150.472 104.136C149.288 103.72 147.704 103.272 145.72 102.792C143.32 102.28 141.272 101.624 139.576 100.824C137.912 99.992 136.648 98.936 135.784 97.656C134.952 96.344 134.536 94.728 134.536 92.808C134.536 90.888 135.064 89.192 136.12 87.72C137.176 86.216 138.664 85.048 140.584 84.216C142.504 83.352 144.792 82.92 147.448 82.92C149.592 82.92 151.48 83.208 153.112 83.784C154.776 84.36 156.152 85.112 157.24 86.04C158.36 86.968 159.208 87.96 159.784 89.016C160.36 90.072 160.664 91.096 160.696 92.088C160.696 92.344 160.6 92.584 160.408 92.808C160.216 93 159.976 93.096 159.688 93.096H154.312C153.992 93.096 153.704 93.032 153.448 92.904C153.192 92.776 152.984 92.552 152.824 92.232C152.632 91.4 152.056 90.68 151.096 90.072C150.168 89.432 148.952 89.112 147.448 89.112C145.88 89.112 144.632 89.4 143.704 89.976C142.808 90.552 142.36 91.432 142.36 92.616C142.36 93.384 142.584 94.04 143.032 94.584C143.512 95.096 144.296 95.56 145.384 95.976C146.504 96.36 147.976 96.792 149.8 97.272C152.616 97.848 154.904 98.536 156.664 99.336C158.424 100.136 159.72 101.176 160.552 102.456C161.384 103.704 161.8 105.288 161.8 107.208C161.8 109.352 161.192 111.192 159.976 112.728C158.792 114.264 157.144 115.448 155.032 116.28C152.952 117.08 150.52 117.48 147.736 117.48ZM179.385 117C177.401 117 175.705 116.68 174.297 116.04C172.889 115.368 171.817 114.344 171.081 112.968C170.377 111.592 170.025 109.864 170.025 107.784V97.704H166.281C165.929 97.704 165.641 97.592 165.417 97.368C165.193 97.144 165.081 96.856 165.081 96.504V93.24C165.081 92.888 165.193 92.6 165.417 92.376C165.641 92.152 165.929 92.04 166.281 92.04H170.025V84.12C170.025 83.768 170.137 83.48 170.361 83.256C170.617 83.032 170.905 82.92 171.225 82.92H175.929C176.281 82.92 176.569 83.032 176.793 83.256C177.017 83.48 177.129 83.768 177.129 84.12V92.04H183.129C183.449 92.04 183.721 92.152 183.945 92.376C184.169 92.6 184.281 92.888 184.281 93.24V96.504C184.281 96.856 184.169 97.144 183.945 97.368C183.721 97.592 183.449 97.704 183.129 97.704H177.129V107.208C177.129 108.424 177.337 109.384 177.753 110.088C178.201 110.76 178.969 111.096 180.057 111.096H183.561C183.881 111.096 184.153 111.208 184.377 111.432C184.601 111.656 184.713 111.928 184.713 112.248V115.8C184.713 116.152 184.601 116.44 184.377 116.664C184.153 116.888 183.881 117 183.561 117H179.385ZM199.028 117.48C197.172 117.48 195.524 117.064 194.084 116.232C192.676 115.368 191.572 114.136 190.772 112.536C190.004 110.904 189.62 108.936 189.62 106.632V93.24C189.62 92.888 189.732 92.6 189.956 92.376C190.18 92.152 190.452 92.04 190.772 92.04H195.86C196.212 92.04 196.5 92.152 196.724 92.376C196.948 92.6 197.06 92.888 197.06 93.24V106.344C197.06 109.928 198.628 111.72 201.764 111.72C203.268 111.72 204.452 111.256 205.316 110.328C206.212 109.368 206.66 108.04 206.66 106.344V93.24C206.66 92.888 206.772 92.6 206.996 92.376C207.22 92.152 207.508 92.04 207.86 92.04H212.948C213.268 92.04 213.54 92.152 213.764 92.376C213.988 92.6 214.1 92.888 214.1 93.24V115.8C214.1 116.152 213.988 116.44 213.764 116.664C213.54 116.888 213.268 117 212.948 117H208.244C207.892 117 207.604 116.888 207.38 116.664C207.156 116.44 207.044 116.152 207.044 115.8V113.928C206.212 115.08 205.14 115.96 203.828 116.568C202.516 117.176 200.916 117.48 199.028 117.48ZM230.941 117.48C228.957 117.48 227.246 117.256 225.806 116.808C224.397 116.328 223.245 115.752 222.349 115.08C221.485 114.408 220.829 113.736 220.381 113.064C219.965 112.36 219.741 111.768 219.709 111.288C219.677 110.936 219.789 110.648 220.045 110.424C220.301 110.2 220.557 110.088 220.813 110.088H225.47C225.565 110.088 225.661 110.104 225.757 110.136C225.853 110.168 225.949 110.248 226.045 110.376C226.461 110.664 226.893 111 227.341 111.384C227.789 111.736 228.302 112.04 228.877 112.296C229.486 112.552 230.238 112.68 231.134 112.68C232.189 112.68 233.085 112.472 233.821 112.056C234.557 111.608 234.925 110.984 234.925 110.184C234.925 109.608 234.749 109.128 234.397 108.744C234.077 108.36 233.454 108.008 232.526 107.688C231.598 107.368 230.221 107.016 228.397 106.632C226.669 106.248 225.197 105.736 223.981 105.096C222.765 104.456 221.853 103.656 221.245 102.696C220.637 101.704 220.333 100.52 220.333 99.144C220.333 97.896 220.717 96.696 221.485 95.544C222.285 94.392 223.453 93.448 224.989 92.712C226.525 91.944 228.445 91.56 230.749 91.56C232.509 91.56 234.045 91.784 235.358 92.232C236.701 92.648 237.821 93.192 238.717 93.864C239.614 94.504 240.286 95.176 240.734 95.88C241.214 96.552 241.47 97.144 241.502 97.656C241.534 97.976 241.438 98.248 241.214 98.472C240.99 98.696 240.734 98.808 240.446 98.808H236.173C236.013 98.808 235.87 98.792 235.742 98.76C235.614 98.696 235.502 98.616 235.406 98.52C235.022 98.264 234.622 97.976 234.206 97.656C233.821 97.304 233.357 97 232.813 96.744C232.27 96.488 231.566 96.36 230.701 96.36C229.645 96.36 228.829 96.6 228.253 97.08C227.709 97.528 227.437 98.104 227.437 98.808C227.437 99.256 227.581 99.672 227.869 100.056C228.158 100.44 228.75 100.792 229.645 101.112C230.542 101.432 231.902 101.768 233.725 102.12C235.902 102.504 237.63 103.08 238.91 103.848C240.19 104.616 241.102 105.512 241.646 106.536C242.221 107.528 242.509 108.6 242.509 109.752C242.509 111.256 242.062 112.6 241.166 113.784C240.27 114.936 238.957 115.848 237.23 116.52C235.534 117.16 233.438 117.48 230.941 117.48ZM259.983 117C257.999 117 256.303 116.68 254.895 116.04C253.487 115.368 252.415 114.344 251.679 112.968C250.975 111.592 250.623 109.864 250.623 107.784V97.704H246.879C246.527 97.704 246.239 97.592 246.015 97.368C245.791 97.144 245.679 96.856 245.679 96.504V93.24C245.679 92.888 245.791 92.6 246.015 92.376C246.239 92.152 246.527 92.04 246.879 92.04H250.623V84.12C250.623 83.768 250.735 83.48 250.959 83.256C251.215 83.032 251.503 82.92 251.823 82.92H256.527C256.879 82.92 257.167 83.032 257.391 83.256C257.615 83.48 257.727 83.768 257.727 84.12V92.04H263.727C264.047 92.04 264.319 92.152 264.543 92.376C264.767 92.6 264.879 92.888 264.879 93.24V96.504C264.879 96.856 264.767 97.144 264.543 97.368C264.319 97.592 264.047 97.704 263.727 97.704H257.727V107.208C257.727 108.424 257.935 109.384 258.351 110.088C258.799 110.76 259.567 111.096 260.655 111.096H264.159C264.479 111.096 264.751 111.208 264.975 111.432C265.199 111.656 265.311 111.928 265.311 112.248V115.8C265.311 116.152 265.199 116.44 264.975 116.664C264.751 116.888 264.479 117 264.159 117H259.983ZM271.659 117C271.307 117 271.019 116.888 270.795 116.664C270.571 116.44 270.459 116.152 270.459 115.8V84.12C270.459 83.768 270.571 83.48 270.795 83.256C271.019 83.032 271.307 82.92 271.659 82.92H276.459C276.779 82.92 277.051 83.032 277.275 83.256C277.499 83.48 277.611 83.768 277.611 84.12V115.8C277.611 116.152 277.499 116.44 277.275 116.664C277.051 116.888 276.779 117 276.459 117H271.659ZM295.774 117.48C292.094 117.48 289.166 116.456 286.99 114.408C284.846 112.36 283.71 109.384 283.582 105.48C283.582 105.224 283.582 104.888 283.582 104.472C283.582 104.024 283.582 103.672 283.582 103.416C283.71 100.952 284.27 98.84 285.262 97.08C286.254 95.288 287.646 93.928 289.438 93C291.23 92.04 293.326 91.56 295.726 91.56C298.414 91.56 300.654 92.12 302.446 93.24C304.27 94.328 305.63 95.832 306.526 97.752C307.454 99.64 307.918 101.816 307.918 104.28V105.384C307.918 105.704 307.79 105.976 307.534 106.2C307.31 106.424 307.038 106.536 306.718 106.536H291.022C291.022 106.568 291.022 106.632 291.022 106.728C291.022 106.792 291.022 106.856 291.022 106.92C291.054 107.944 291.246 108.888 291.598 109.752C291.982 110.584 292.51 111.256 293.182 111.768C293.886 112.28 294.718 112.536 295.678 112.536C296.478 112.536 297.134 112.424 297.646 112.2C298.158 111.976 298.574 111.704 298.894 111.384C299.246 111.064 299.502 110.792 299.662 110.568C299.95 110.248 300.174 110.056 300.334 109.992C300.526 109.896 300.814 109.848 301.198 109.848H306.19C306.51 109.848 306.766 109.944 306.958 110.136C307.182 110.296 307.278 110.536 307.246 110.856C307.214 111.368 306.942 112.008 306.43 112.776C305.95 113.512 305.23 114.248 304.27 114.984C303.31 115.688 302.11 116.28 300.67 116.76C299.262 117.24 297.63 117.48 295.774 117.48ZM291.022 102.168H300.43V102.072C300.43 100.92 300.238 99.928 299.854 99.096C299.502 98.232 298.974 97.56 298.27 97.08C297.566 96.6 296.718 96.36 295.726 96.36C294.734 96.36 293.886 96.6 293.182 97.08C292.478 97.56 291.934 98.232 291.55 99.096C291.198 99.928 291.022 100.92 291.022 102.072V102.168Z" fill="#E29507"/>
<path d="M295.478 84.6391C290.372 77.4359 279.202 71.4808 263.642 67.6654C248.082 63.85 228.969 62.3796 209.164 63.4744C189.359 64.5691 169.928 68.1702 153.781 73.7383C137.633 79.3064 125.638 86.542 119.592 94.3617C113.545 102.181 113.772 110.164 120.239 117.115C126.706 124.066 139.064 129.611 155.464 132.92C171.864 136.229 191.423 137.124 211.212 135.47C231.001 133.816 249.956 129.703 265.238 123.747L262.787 122.737C248.147 128.443 229.988 132.383 211.031 133.967C192.073 135.551 173.336 134.694 157.625 131.525C141.914 128.355 130.075 123.043 123.88 116.384C117.684 109.725 117.467 102.077 123.26 94.5859C129.052 87.0948 140.543 80.1632 156.012 74.829C171.481 69.4948 190.096 66.0451 209.069 64.9963C228.042 63.9475 246.352 65.3561 261.258 69.0112C276.165 72.6663 286.865 78.3713 291.757 85.2718L295.478 84.6391Z" fill="#E29507"/>
</svg>
