<svg width="100" height="20" viewBox="0 0 100 20" fill="none" xmlns="http://www.w3.org/2000/svg">
<path d="M11.9031 3.28691C10.6441 1.08635 8.81289 0 6.38076 0C4.92148 0 3.6625 0.501391 2.66103 1.47632C1.65957 2.45125 1.14453 3.64902 1.14453 5.12535C1.14453 11.1421 9.67128 10.3064 9.67128 14.1226C9.67128 15.8217 8.4123 17.0474 6.60966 17.0474C4.63535 17.0474 3.29053 15.6825 2.57519 12.9248L0 14.5125C0.715331 17.7437 3.17607 19.9443 6.60966 19.9443C8.44091 19.9443 9.9288 19.3872 11.1019 18.3008C12.2751 17.2145 12.876 15.766 12.876 14.0111C12.9046 10.5014 9.72851 9.10864 7.32499 8.078C5.63681 7.29805 4.29199 6.32312 4.29199 4.90251C4.29199 3.70473 5.12177 2.78551 6.38076 2.78551C7.58251 2.78551 8.58398 3.50975 9.35654 4.93036L11.9031 3.28691Z" fill="#E29507"/>
<path d="M16.9782 8.24513V14.9304C16.9782 18.2451 18.838 19.9443 21.6994 19.9443C22.5291 19.9443 23.3017 19.7772 24.017 19.4429L23.2445 16.9916C22.8153 17.2423 22.3575 17.3816 21.871 17.3816C20.5834 17.3816 19.954 16.6295 19.954 15.0975V8.24513H23.7023V5.68245H19.954V0L16.9782 1.81058V5.68245H14.5747V8.24513H16.9782Z" fill="#E29507"/>
<path d="M38.5593 5.68245H35.5835V11.3649C35.5835 13.2033 35.2115 14.6797 34.4676 15.766C33.7522 16.8524 32.8939 17.3816 31.8924 17.3816C30.4045 17.3816 29.6606 16.5181 29.6606 14.8189V5.68245H26.6848V15.7382C26.6848 18.4123 28.373 19.9443 30.9195 19.9443C32.8366 19.9443 34.5534 18.9972 35.5835 17.3259V19.7214H38.5593V5.68245Z" fill="#E29507"/>
<path d="M46.4603 5.45961C45.1727 5.45961 44.114 5.84958 43.2843 6.62953C42.4545 7.38162 42.0253 8.32869 42.0253 9.4429C42.0253 11.1699 43.0554 12.4513 45.1155 13.2869C45.5733 13.4819 46.632 13.844 47.0612 14.039C47.2901 14.1226 47.5476 14.2618 47.8052 14.429C48.3488 14.7354 48.5491 15.0696 48.5491 15.5432C48.5491 16.7688 47.891 17.3816 46.6034 17.3816C45.2586 17.3816 44.1999 16.546 43.4273 14.8468L40.9094 16.1838C41.7964 18.2173 43.7421 19.9443 46.4889 19.9443C48.0055 19.9443 49.2072 19.5265 50.1228 18.663C51.0385 17.7994 51.4963 16.7409 51.4963 15.4875C51.3818 13.9554 50.8382 13.1198 49.6936 12.4513C48.8925 11.922 48.4633 11.7827 47.4618 11.4206C46.2314 10.9749 45.745 10.7521 45.2586 10.2786C45.0011 10.0279 44.8866 9.72145 44.8866 9.41504C44.8866 8.52368 45.5161 8.02228 46.3173 8.02228C47.3187 8.02228 48.1485 8.44011 48.8352 9.30362L50.7237 7.68802C49.8081 6.32312 48.2057 5.45961 46.4603 5.45961Z" fill="#E29507"/>
<path d="M55.4831 8.24513V14.9304C55.4831 18.2451 57.343 19.9443 60.2043 19.9443C61.0341 19.9443 61.8067 19.7772 62.522 19.4429L61.7494 16.9916C61.3202 17.2423 60.8624 17.3816 60.376 17.3816C59.0884 17.3816 58.4589 16.6295 58.4589 15.0975V8.24513H62.2072V5.68245H58.4589V0L55.4831 1.81058V5.68245H53.0796V8.24513H55.4831Z" fill="#E29507"/>
<path d="M65.8916 19.7214H68.8674V0H65.8916V19.7214Z" fill="#E29507"/>
<path d="M78.8235 8.02228C80.855 8.02228 82.0568 9.33148 82.3143 11.0864H75.3041C75.6474 9.27576 76.9064 8.02228 78.8235 8.02228ZM85.4618 12.2563C85.4618 9.10864 83.4302 5.45961 78.8235 5.45961C74.0737 5.45961 72.0994 9.35933 72.0994 12.702C72.0994 16.0446 74.0737 19.9443 78.8235 19.9443C81.9996 19.9443 83.6878 18.7465 85.147 15.9889L82.6005 15.0139C81.8851 16.4903 80.4258 17.3816 78.8235 17.3816C76.5631 17.3816 75.2468 15.7103 75.2468 13.5098H85.4618V12.2563Z" fill="#E29507"/>
<path d="M92.7465 12.9805C91.1442 14.5404 91.1442 17.2145 92.7465 18.8301C94.4061 20.39 97.153 20.39 98.7553 18.8301C100.415 17.2145 100.415 14.5404 98.7553 12.9805C97.153 11.3649 94.4061 11.3649 92.7465 12.9805Z" fill="#E29507"/>
</svg>
