<svg width="17" height="86" viewBox="0 0 17 86" fill="none" xmlns="http://www.w3.org/2000/svg">
<path d="M5.32763 3C5.32763 4.47276 6.52154 5.66667 7.9943 5.66667C9.46706 5.66667 10.661 4.47276 10.661 3C10.661 1.52724 9.46706 0.333333 7.9943 0.333333C6.52154 0.333333 5.32763 1.52724 5.32763 3ZM5.32763 78C5.32763 79.4728 6.52154 80.6667 7.9943 80.6667C9.46706 80.6667 10.661 79.4728 10.661 78C10.661 76.5272 9.46706 75.3333 7.9943 75.3333C6.52154 75.3333 5.32763 76.5272 5.32763 78ZM7.9943 3V2.5C7.77386 2.5 7.53749 2.594 7.39724 2.8286C7.28458 3.01708 7.27973 3.22589 7.29009 3.36957C7.31163 3.66847 7.43188 4.04919 7.59024 4.4589C7.91506 5.29925 8.49353 6.48864 9.18126 7.88816C10.567 10.708 12.4335 14.4548 13.7809 18.2622C15.1351 22.0887 15.9275 25.8782 15.2581 28.8089C14.9274 30.2566 14.2424 31.4847 13.0926 32.4176C11.9377 33.3547 10.2753 34.0251 7.9395 34.2827L7.9943 34.7797L8.04909 35.2767C10.5173 35.0045 12.3789 34.2846 13.7227 33.1941C15.0718 32.0994 15.8604 30.6626 16.233 29.0316C16.97 25.8051 16.0874 21.7821 14.7236 17.9285C13.3531 14.0558 11.4585 10.2549 10.0788 7.44712C9.38375 6.03281 8.82835 4.88838 8.52299 4.09837C8.36627 3.6929 8.29735 3.4343 8.2875 3.29768C8.28216 3.2236 8.30107 3.26559 8.25558 3.3417C8.1825 3.46394 8.05673 3.5 7.9943 3.5V3ZM7.9943 34.7797L7.9395 34.2827C5.55514 34.5456 3.93478 34.5123 2.9006 34.2938C1.84761 34.0712 1.5708 33.7018 1.51485 33.4331C1.44486 33.0968 1.61829 32.5613 2.18328 31.8407C2.72551 31.1491 3.54213 30.3974 4.50341 29.6699C6.43032 28.2115 8.83974 26.9233 10.5477 26.4421C10.9716 26.3226 11.3342 26.2582 11.6241 26.2474C11.9224 26.2362 12.0925 26.2837 12.1766 26.3339C12.2309 26.3663 12.2736 26.4098 12.2853 26.5385C12.2996 26.6968 12.2599 26.9662 12.0847 27.3822L12.5455 27.5763L13.0062 27.7704C13.2103 27.286 13.3167 26.8403 13.2812 26.4482C13.243 26.0266 13.0398 25.6844 12.6891 25.4752C12.3682 25.2837 11.9744 25.2335 11.5868 25.248C11.1908 25.2629 10.7454 25.3474 10.2765 25.4795C8.41306 26.0046 5.89207 27.3648 3.89993 28.8725C2.90168 29.628 2.01162 30.4389 1.39631 31.2237C0.80376 31.9795 0.368794 32.8343 0.535838 33.6369C0.716933 34.5069 1.5226 35.0246 2.69383 35.2722C3.88387 35.5237 5.62946 35.5434 8.04909 35.2767L7.9943 34.7797ZM12.5455 27.5763L12.0847 27.3822C11.682 28.3382 11.3189 29.8493 10.9865 31.7238C10.652 33.6095 10.3425 35.9003 10.0574 38.4381C9.48727 43.5144 9.0126 49.6012 8.63313 55.4571C8.2536 61.314 7.96898 66.9451 7.77926 71.1115C7.6844 73.1949 7.61324 74.9123 7.5658 76.109C7.54208 76.7074 7.52429 77.1756 7.51242 77.4943C7.50649 77.6536 7.50204 77.7756 7.49907 77.8577C7.49758 77.8988 7.49647 77.93 7.49573 77.9509C7.49535 77.9613 7.49507 77.9692 7.49489 77.9745C7.49479 77.9771 7.49472 77.9791 7.49468 77.9804C7.49465 77.9811 7.49464 77.9816 7.49462 77.9819C7.49461 77.9823 7.49461 77.9825 7.9943 78C8.49399 78.0175 8.494 78.0174 8.49401 78.0171C8.49402 78.0168 8.49403 78.0163 8.49406 78.0156C8.4941 78.0143 8.49417 78.0124 8.49426 78.0098C8.49445 78.0046 8.49472 77.9968 8.49509 77.9864C8.49583 77.9657 8.49694 77.9348 8.49842 77.8939C8.50137 77.812 8.50581 77.6904 8.51173 77.5315C8.52357 77.2135 8.54133 76.7461 8.56502 76.1486C8.61239 74.9536 8.68346 73.2381 8.77823 71.157C8.96777 66.9945 9.25205 61.3703 9.63104 55.5217C10.0101 49.6721 10.4836 43.6032 11.0512 38.5497C11.335 36.0227 11.6418 33.755 11.9711 31.8984C12.3024 30.0305 12.6504 28.6152 13.0062 27.7704L12.5455 27.5763Z" fill="black"/>
<circle cx="8" cy="78" r="6.5" fill="white" stroke="black" stroke-width="3"/>
</svg>
