<svg width="120" height="118" viewBox="0 0 120 118" fill="none" xmlns="http://www.w3.org/2000/svg">
<g clip-path="url(#clip0_3314_5609)" filter="url(#filter0_f_3314_5609)">
<path d="M65.13 90.8258C72.0902 89.4047 78.3853 85.7222 83.0352 80.3517C94.6783 66.9057 93.2129 46.5641 79.7663 34.9229C73.6645 29.6396 65.8014 26.8399 57.7338 27.0782M37.8583 34.7063C36.5942 35.7782 35.42 36.9398 34.3356 38.1912C22.6944 51.6378 24.1561 71.9782 37.604 83.6219C41.4832 86.9771 46.1083 89.3598 51.0922 90.5711M40.7048 53.6342C39.308 57.6487 39.8397 61.3337 41.6217 65.9503C42.2789 67.6535 46.0013 68.853 48.5034 68.7208C49.925 68.6454 50.757 67.5918 51.6298 65.6928C53.5896 61.4332 52.9991 57.4711 51.1349 53.3897M40.7048 53.6342L51.1349 53.3897M40.7048 53.6342C37.2059 39.1782 34.4585 23.1432 48.1015 18.7472C53.1215 17.129 57.7687 22.6757 57.7921 28.1123C57.8082 32.2627 57.6383 34.0334 56.299 37.1654C54.4829 41.4107 52.9995 45.314 51.1349 53.3897M67.5209 86.6007C66.0418 90.5871 63.2878 93.0908 58.9726 95.5162C57.3822 96.4117 53.7517 94.966 51.9007 93.2687C50.854 92.3085 50.8844 90.9657 51.4188 88.9456C52.6196 84.4154 55.599 81.7354 59.6321 79.7732M67.5209 86.6007L59.6321 79.7732M67.5209 86.6007C79.424 77.6799 91.749 67.0639 84.0292 54.9899C81.1867 50.545 74.0717 51.8666 70.5936 56.0422C67.9366 59.2319 66.9407 60.7073 65.98 63.9742C64.6771 68.4023 63.3345 72.3597 59.6321 79.7732" stroke="#E29507" stroke-width="0.5" stroke-linecap="round" stroke-linejoin="round"/>
</g>
<g clip-path="url(#clip1_3314_5609)">
<path d="M66.6261 90.8258C73.5863 89.4047 79.8814 85.7222 84.5313 80.3517C96.1744 66.9057 94.709 46.5641 81.2624 34.9229C75.1606 29.6396 67.2975 26.8399 59.2299 27.0782M39.3544 34.7063C38.0903 35.7782 36.9161 36.9398 35.8317 38.1912C24.1904 51.6378 25.6522 71.9782 39.1001 83.6219C42.9793 86.9771 47.6044 89.3598 52.5883 90.5711M42.2009 53.6342C40.8041 57.6487 41.3358 61.3337 43.1178 65.9503C43.775 67.6535 47.4974 68.853 49.9995 68.7208C51.4211 68.6454 52.2531 67.5918 53.1259 65.6928C55.0856 61.4332 54.4952 57.4711 52.631 53.3897M42.2009 53.6342L52.631 53.3897M42.2009 53.6342C38.702 39.1782 35.9546 23.1432 49.5976 18.7472C54.6176 17.129 59.2648 22.6757 59.2882 28.1123C59.3043 32.2627 59.1344 34.0334 57.7951 37.1654C55.979 41.4107 54.4956 45.314 52.631 53.3897M69.017 86.6007C67.5379 90.5871 64.7839 93.0908 60.4687 95.5162C58.8783 96.4117 55.2478 94.966 53.3968 93.2687C52.3501 92.3085 52.3805 90.9657 52.9149 88.9456C54.1157 84.4154 57.0951 81.7354 61.1282 79.7732M69.017 86.6007L61.1282 79.7732M69.017 86.6007C80.9201 77.6799 93.2451 67.0639 85.5253 54.9899C82.6828 50.545 75.5678 51.8666 72.0896 56.0422C69.4327 59.2319 68.4368 60.7073 67.4761 63.9742C66.1732 68.4023 64.8306 72.3597 61.1282 79.7732" stroke="#E29507" stroke-width="0.5" stroke-linecap="round" stroke-linejoin="round"/>
</g>
<defs>
<filter id="filter0_f_3314_5609" x="-2.3" y="-2.3" width="122.268" height="122.268" filterUnits="userSpaceOnUse" color-interpolation-filters="sRGB">
<feFlood flood-opacity="0" result="BackgroundImageFix"/>
<feBlend mode="normal" in="SourceGraphic" in2="BackgroundImageFix" result="shape"/>
<feGaussianBlur stdDeviation="1.15" result="effect1_foregroundBlur_3314_5609"/>
</filter>
<clipPath id="clip0_3314_5609">
<rect width="92.7366" height="92.7366" fill="white" transform="matrix(-0.946685 -0.322161 -0.322161 0.946685 117.668 29.876)"/>
</clipPath>
<clipPath id="clip1_3314_5609">
<rect width="92.7366" height="92.7366" fill="white" transform="matrix(-0.946685 -0.322161 -0.322161 0.946685 119.164 29.876)"/>
</clipPath>
</defs>
</svg>
